<?xml version="1.0" encoding="UTF-8"?>
<svg version="1.1" xmlns="http://www.w3.org/2000/svg" width="256" height="256">
<path d="M0 0 C22.0302339 18.80452016 36.48251019 41.06532637 44.3515625 68.91015625 C44.69316406 70.09996094 45.03476563 71.28976563 45.38671875 72.515625 C52.81217988 104.18608014 46.42571339 139.57251359 29.7109375 167.21484375 C11.42957677 196.29335081 -15.82560746 215.63430261 -48.6484375 224.91015625 C-49.83824219 225.25175781 -51.02804688 225.59335938 -52.25390625 225.9453125 C-83.92436139 233.37077363 -119.31079484 226.98430714 -146.953125 210.26953125 C-176.03163206 191.98817052 -195.37258386 164.73298629 -204.6484375 131.91015625 C-204.99003906 130.72035156 -205.33164063 129.53054687 -205.68359375 128.3046875 C-213.10905488 96.63423236 -206.72258839 61.24779891 -190.0078125 33.60546875 C-171.72645177 4.52696169 -144.47126754 -14.81399011 -111.6484375 -24.08984375 C-110.45863281 -24.43144531 -109.26882812 -24.77304687 -108.04296875 -25.125 C-71.1180264 -33.78242923 -29.24008954 -23.98389969 0 0 Z " fill="#000000" transform="translate(208.6484375,28.08984375)"/>
<path d="M0 0 C1.00358047 -0.00744736 1.00358047 -0.00744736 2.0274353 -0.01504517 C4.22053076 -0.02954409 6.41355414 -0.0364445 8.60668945 -0.04199219 C10.1379242 -0.04774934 11.66915894 -0.053507 13.20039368 -0.05926514 C16.4003635 -0.06973701 19.60030845 -0.07560603 22.80029297 -0.07910156 C26.90283946 -0.08460916 31.0050579 -0.10870085 35.10750103 -0.13707352 C38.26531451 -0.15567186 41.42304801 -0.16090376 44.58091164 -0.16243744 C46.09401068 -0.16546576 47.60710826 -0.17350037 49.12015343 -0.18662262 C51.23140227 -0.20364145 53.34183578 -0.20181489 55.453125 -0.1953125 C56.65414352 -0.19895813 57.85516205 -0.20260376 59.09257507 -0.20635986 C62.0324707 0.16113281 62.0324707 0.16113281 63.90852356 1.49981689 C65.33791148 3.61260744 65.62463348 5.40155761 65.5168457 7.93457031 C63.73121661 16.14270406 58.64269855 25.0011422 51.6730957 29.77832031 C49.16047407 31.3319828 46.65476792 32.80081613 44.0324707 34.16113281 C43.36989258 34.51151611 42.70731445 34.86189941 42.0246582 35.22290039 C37.58701259 36.61437168 33.28201425 36.45946772 28.6574707 36.46972656 C26.6001761 36.4948783 24.5428845 36.52027645 22.4855957 36.54589844 C19.25318119 36.57467145 16.02081857 36.59870033 12.78833008 36.61743164 C9.66111028 36.63908236 6.53448487 36.67851134 3.4074707 36.71972656 C1.96041748 36.71990028 1.96041748 36.71990028 0.48413086 36.72007751 C-4.44158841 36.79272266 -8.02910268 36.85365226 -11.9675293 40.16113281 C-14.47057307 43.91569848 -14.42033004 45.70859216 -13.9675293 50.16113281 C-11.7087356 54.401419 -11.7087356 54.401419 -7.9675293 57.16113281 C-5.3614142 57.25765559 -2.77714466 57.29821195 -0.1706543 57.30175781 C1.44524483 57.32011983 3.06113055 57.33969315 4.67700195 57.36035156 C7.21091796 57.38903007 9.74398866 57.41112528 12.27807617 57.41162109 C26.15164511 57.43082516 39.02268775 58.70095521 50.06762695 68.14160156 C55.426022 73.64913683 59.44462482 79.94240481 62.0324707 87.16113281 C62.6202832 88.70800781 62.6202832 88.70800781 63.2199707 90.28613281 C66.01506018 103.61655956 63.4471916 117.7107956 56.0324707 129.16113281 C51.0966403 135.43007812 45.38527481 139.18774181 38.0324707 142.16113281 C37.20779297 142.50571533 36.38311523 142.85029785 35.53344727 143.20532227 C30.82149172 144.49174527 26.38777051 144.46651817 21.5246582 144.46191406 C20.02009567 144.46834175 20.02009567 144.46834175 18.48513794 144.47489929 C16.3721797 144.48062533 14.25920176 144.48115562 12.14624023 144.47680664 C8.91136298 144.47363663 5.67739195 144.49716247 2.44262695 144.52246094 C0.38663852 144.52473307 -1.66935237 144.52543783 -3.7253418 144.52441406 C-4.69206818 144.53362381 -5.65879456 144.54283356 -6.65481567 144.55232239 C-7.55610199 144.5460936 -8.45738831 144.53986481 -9.38598633 144.53344727 C-10.5712944 144.5343914 -10.5712944 144.5343914 -11.7805481 144.53535461 C-14.54275642 144.06270374 -15.93085748 143.05682003 -17.9675293 141.16113281 C-18.68112503 137.79688938 -18.17507085 136.48366899 -16.31298828 133.58984375 C-13.73692186 130.63551879 -11.12700432 127.73091753 -8.4050293 124.91113281 C-7.91921387 124.40302063 -7.43339844 123.89490845 -6.93286133 123.37139893 C-0.81805909 117.12732973 4.42813621 112.97365186 13.51269531 112.46289062 C16.42360818 112.53349244 19.28929614 112.73636683 22.1887207 112.99707031 C25.65936592 113.30400716 27.67230868 113.23541514 30.6262207 111.32519531 C33.1353423 109.06861517 33.88324187 108.22840231 34.34106445 104.95410156 C34.57483265 100.22915052 34.63618286 97.93960375 31.6574707 94.09863281 C28.74812031 92.06692493 26.46281583 92.00495878 22.9699707 91.97363281 C20.3605957 91.85644531 20.3605957 91.85644531 18.0324707 91.16113281 C16.25108714 88.75361938 15.23506656 86.38597239 14.11450195 83.61425781 C12.71913136 80.45074615 10.96636686 78.93691207 8.0324707 77.16113281 C3.12432451 75.52508408 -1.84565108 75.66524805 -6.9675293 76.16113281 C-10.42843384 77.74480773 -10.42843384 77.74480773 -12.9675293 80.16113281 C-14.3597168 81.21300781 -14.3597168 81.21300781 -15.7800293 82.28613281 C-18.03574244 83.97417827 -18.03574244 83.97417827 -18.9675293 86.16113281 C-23.785841 85.72792681 -26.50783886 83.42575633 -29.9050293 80.22363281 C-30.43281982 79.73072754 -30.96061035 79.23782227 -31.50439453 78.72998047 C-41.10450622 69.46060027 -45.73841995 57.72204787 -46.2175293 44.47363281 C-46.03525473 32.2976916 -40.69226879 19.69198921 -31.9675293 11.16113281 C-21.86553508 3.78380896 -12.58482925 0.07140508 0 0 Z " fill="#F9F9F9" transform="translate(112.967529296875,51.8388671875)"/>
<path d="M0 0 C4.47406204 2.31621796 7.50253015 5.96944989 9.828125 10.3515625 C10.4609375 12.5703125 10.4609375 12.5703125 10.828125 14.3515625 C11.78912109 14.35542969 11.78912109 14.35542969 12.76953125 14.359375 C18.42429422 14.612196 22.47343858 15.36213537 26.60546875 19.40625 C28.98812817 23.19719055 28.73235925 27.08670962 27.828125 31.3515625 C25.69834183 35.00261937 23.69087884 36.77152105 19.828125 38.3515625 C17.31030273 38.63867188 17.31030273 38.63867188 14.51171875 38.6953125 C12.99481445 38.73978516 12.99481445 38.73978516 11.44726562 38.78515625 C9.32226732 38.82950858 7.19726732 38.87377911 5.07226562 38.91796875 C3.55729492 38.96244141 3.55729492 38.96244141 2.01171875 39.0078125 C0.62811157 39.03584961 0.62811157 39.03584961 -0.78344727 39.06445312 C-3.4349052 39.20088265 -3.4349052 39.20088265 -6.171875 41.3515625 C-9.796875 40.2890625 -9.796875 40.2890625 -13.171875 38.3515625 C-14.21875 36.0859375 -14.21875 36.0859375 -14.171875 33.3515625 C-12.42736464 31.18441303 -10.84188441 29.49708922 -8.796875 27.6640625 C-3.63511947 23.21636635 -3.63511947 23.21636635 -1.984375 16.8515625 C-1.78402224 13.29390339 -1.78402224 13.29390339 -4.171875 11.3515625 C-7.55431168 10.62675464 -8.95446815 10.34845721 -12.171875 11.3515625 C-14.9693018 13.77967802 -17.36328337 16.35610858 -19.77734375 19.1640625 C-22.171875 21.3515625 -22.171875 21.3515625 -24.91015625 21.7265625 C-27.171875 21.3515625 -27.171875 21.3515625 -28.171875 20.3515625 C-28.421875 17.9765625 -28.421875 17.9765625 -28.171875 15.3515625 C-26.734375 13.7265625 -26.734375 13.7265625 -25.171875 12.3515625 C-24.841875 11.3615625 -24.511875 10.3715625 -24.171875 9.3515625 C-24.831875 9.0215625 -25.491875 8.6915625 -26.171875 8.3515625 C-24.54867825 7.03683303 -22.92326 5.72484588 -21.296875 4.4140625 C-20.39195313 3.68316406 -19.48703125 2.95226562 -18.5546875 2.19921875 C-13.32552679 -1.8555239 -6.2783575 -1.87447364 0 0 Z " fill="#050505" transform="translate(120.171875,127.6484375)"/>
<path d="M0 0 C2.05859375 0.91015625 2.05859375 0.91015625 2.98828125 2.9765625 C3.05859375 5.91015625 3.05859375 5.91015625 1.84472656 7.53857422 C0.00729386 9.37130092 -1.87926079 11.12058511 -3.81640625 12.84765625 C-8.96588511 17.28477576 -8.96588511 17.28477576 -11.98046875 23.19921875 C-12.17135742 26.0022786 -12.17135742 26.0022786 -10.44140625 28.34765625 C-7.97009007 30.20283468 -7.97009007 30.20283468 -4.66796875 29.88671875 C0.1141004 28.63355598 2.01747747 26.48328846 5.18359375 22.84765625 C10.29645331 17.02798019 10.29645331 17.02798019 13.86328125 16.4765625 C16.05859375 16.91015625 16.05859375 16.91015625 17.05859375 17.91015625 C17.5390625 20.0234375 17.5390625 20.0234375 17.05859375 22.91015625 C15.1014473 25.5848973 12.76196421 27.811879 10.37109375 30.09765625 C9.43233398 31.0402832 9.43233398 31.0402832 8.47460938 32.00195312 C3.89386325 36.4867674 0.63880531 38.66442182 -5.87890625 39.28515625 C-10.95171743 39.16072881 -13.88205473 36.60176643 -17.69140625 33.47265625 C-21.01196326 29.32195999 -21.48780759 25.10096899 -20.94140625 19.91015625 C-17.98299084 14.77835949 -14.14217115 10.68069168 -10.00390625 6.47265625 C-9.39611328 5.82361328 -8.78832031 5.17457031 -8.16210938 4.50585938 C-3.62388971 -0.11068986 -3.62388971 -0.11068986 0 0 Z " fill="#F5F5F5" transform="translate(88.94140625,149.08984375)"/>
<path d="M0 0 C3.375 1.6875 3.375 1.6875 6 4 C6.78375 4.680625 7.5675 5.36125 8.375 6.0625 C10.83576944 10.51081399 10.93646927 15.03533572 10 20 C7.42658618 24.52873286 4.18234648 28.23798702 0.5625 31.9375 C-0.13456055 32.69643555 -0.13456055 32.69643555 -0.84570312 33.47070312 C-2.24609375 34.90234375 -2.24609375 34.90234375 -5 37 C-7.84765625 36.81640625 -7.84765625 36.81640625 -10 36 C-10.8359375 33.85546875 -10.8359375 33.85546875 -11 31 C-9.25548964 28.83285053 -7.67000941 27.14552672 -5.625 25.3125 C-0.46324447 20.86480385 -0.46324447 20.86480385 1.1875 14.5 C1.38785276 10.94234089 1.38785276 10.94234089 -1 9 C-4.38243668 8.27519214 -5.78259315 7.99689471 -9 9 C-11.7974268 11.42811552 -14.19140837 14.00454608 -16.60546875 16.8125 C-19 19 -19 19 -21.73828125 19.375 C-24 19 -24 19 -25 18 C-25.390625 15.79296875 -25.390625 15.79296875 -25 13 C-23.29873765 10.87928849 -21.71401512 9.14907902 -19.75 7.3125 C-19.25886719 6.82716797 -18.76773438 6.34183594 -18.26171875 5.84179688 C-12.45686102 0.2304344 -7.96384215 -1.0206823 0 0 Z " fill="#F6F6F6" transform="translate(117,130)"/>
<path d="M0 0 C2.625 0.375 2.625 0.375 5 1 C5.8125 3.1875 5.8125 3.1875 6 6 C3.5625 8.6875 3.5625 8.6875 1 11 C1 11.66 1 12.32 1 13 C2.32 13.66 3.64 14.32 5 15 C4.28585938 15.21527344 3.57171875 15.43054688 2.8359375 15.65234375 C-1.23198683 17.58544829 -3.80350403 20.76487307 -6.71875 24.09960938 C-9.3050452 26.87433466 -10.961216 27.98974581 -14.6640625 28.96875 C-18 29 -18 29 -21 26.9375 C-23 24 -23 24 -23.078125 21.3046875 C-21.49286612 16.4455244 -18.37468286 13.68589919 -14.75 10.1875 C-14.08097656 9.50751953 -13.41195312 8.82753906 -12.72265625 8.12695312 C-9.08906497 4.54690199 -7.08025414 2.90704007 -2 2 C-1.34 1.34 -0.68 0.68 0 0 Z " fill="#090808" transform="translate(99,151)"/>
<path d="M0 0 C0.81774399 0.00718552 1.63548798 0.01437103 2.47801208 0.02177429 C3.31626022 0.02223251 4.15450836 0.02269073 5.01815796 0.02316284 C6.79100458 0.0261858 8.56384854 0.03407341 10.33665466 0.0464325 C13.06030105 0.06469239 15.78360775 0.06694219 18.50730896 0.06669617 C20.22671296 0.07161112 21.94611464 0.07743935 23.66551208 0.08427429 C24.4852803 0.08538712 25.30504852 0.08649994 26.1496582 0.08764648 C31.88930783 0.13619504 31.88930783 0.13619504 33.00535583 1.25224304 C33.13035583 3.75224304 33.13035583 3.75224304 33.00535583 6.25224304 C32.00535583 7.25224304 32.00535583 7.25224304 28.31175232 7.36576843 C26.66664291 7.36560928 25.02152852 7.35991293 23.37644958 7.34989929 C22.08010338 7.34777687 22.08010338 7.34777687 20.75756836 7.34561157 C17.98596291 7.33999543 15.21443703 7.32744023 12.44285583 7.31474304 C10.56850804 7.30973012 8.69415898 7.30516685 6.81980896 7.30107117 C2.2149604 7.29002076 -2.38982837 7.27274534 -6.99464417 7.25224304 C-7.61964417 4.87724304 -7.61964417 4.87724304 -7.99464417 2.25224304 C-5.38311911 -0.35928201 -3.55582562 0.01444391 0 0 Z " fill="#F2F2F2" transform="translate(171.99464416503906,105.74775695800781)"/>
<path d="M0 0 C1.12341797 -0.01224609 2.24683594 -0.02449219 3.40429688 -0.03710938 C5.01208008 -0.04000977 5.01208008 -0.04000977 6.65234375 -0.04296875 C8.13528931 -0.04913208 8.13528931 -0.04913208 9.64819336 -0.05541992 C12.0625 0.1875 12.0625 0.1875 14.0625 2.1875 C13.52678571 5.72321429 13.52678571 5.72321429 12.0625 7.1875 C8.08974185 7.44006877 4.10483825 7.37272451 0.125 7.375 C-0.99841797 7.38724609 -2.12183594 7.39949219 -3.27929688 7.41210938 C-4.35115234 7.41404297 -5.42300781 7.41597656 -6.52734375 7.41796875 C-8.01028931 7.42413208 -8.01028931 7.42413208 -9.52319336 7.43041992 C-11.9375 7.1875 -11.9375 7.1875 -13.9375 5.1875 C-12.80885833 -2.26153502 -6.2146286 0.00355325 0 0 Z " fill="#F2F2F2" transform="translate(186.9375,93.8125)"/>
<path d="M0 0 C1.93945312 -0.37231445 1.93945312 -0.37231445 4.28125 -0.36328125 C5.54388672 -0.36231445 5.54388672 -0.36231445 6.83203125 -0.36132812 C7.71246094 -0.34521484 8.59289062 -0.32910156 9.5 -0.3125 C10.38042969 -0.31572266 11.26085937 -0.31894531 12.16796875 -0.32226562 C18.73302968 -0.26697032 18.73302968 -0.26697032 21 2 C20.67 3.65 20.34 5.3 20 7 C13.4 7 6.8 7 0 7 C-0.66 5.68 -1.32 4.36 -2 3 C-1.34 2.01 -0.68 1.02 0 0 Z " fill="#EAEAEA" transform="translate(176,118)"/>
<path d="M0 0 C4.51231476 2.33602136 7.47842052 5.94709553 9.828125 10.3515625 C10.640625 13.2890625 10.640625 13.2890625 10.828125 15.3515625 C9.838125 15.3515625 8.848125 15.3515625 7.828125 15.3515625 C7.498125 16.6715625 7.168125 17.9915625 6.828125 19.3515625 C6.75335938 18.68769531 6.67859375 18.02382812 6.6015625 17.33984375 C5.71696491 11.05252917 5.71696491 11.05252917 1.828125 6.2890625 C-3.27237054 2.99499246 -7.14655597 2.67383016 -13.171875 3.3515625 C-16.52213665 4.97362034 -16.52213665 4.97362034 -19.171875 7.3515625 C-20.595 8.4653125 -20.595 8.4653125 -22.046875 9.6015625 C-22.748125 10.1790625 -23.449375 10.7565625 -24.171875 11.3515625 C-24.171875 10.6915625 -24.171875 10.0315625 -24.171875 9.3515625 C-24.831875 9.0215625 -25.491875 8.6915625 -26.171875 8.3515625 C-24.54867825 7.03683303 -22.92326 5.72484588 -21.296875 4.4140625 C-20.39195313 3.68316406 -19.48703125 2.95226562 -18.5546875 2.19921875 C-13.32552679 -1.8555239 -6.2783575 -1.87447364 0 0 Z " fill="#161616" transform="translate(120.171875,127.6484375)"/>
<path d="M0 0 C2.0625 0.9375 2.0625 0.9375 3 3 C3.07691368 6.61494297 2.34027701 7.22289799 -0.0625 9.8125 C-3.44184636 12.94804582 -3.44184636 12.94804582 -6.875 12.875 C-8.9375 11.9375 -8.9375 11.9375 -9.875 9.875 C-9.95191368 6.26005703 -9.21527701 5.65210201 -6.8125 3.0625 C-3.43315364 -0.07304582 -3.43315364 -0.07304582 0 0 Z " fill="#ECECEC" transform="translate(101.9375,151.0625)"/>
<path d="M0 0 C2.3125 0.1875 2.3125 0.1875 5 1 C7.4640248 4.16803189 8.43623218 7.05362526 9 11 C8.01 11 7.02 11 6 11 C5.67 12.32 5.34 13.64 5 15 C4.89042969 14.31292969 4.78085938 13.62585938 4.66796875 12.91796875 C4.50941406 12.01691406 4.35085937 11.11585938 4.1875 10.1875 C4.03667969 9.29417969 3.88585937 8.40085938 3.73046875 7.48046875 C2.936159 4.78321371 2.03259853 3.85439811 0 2 C0 1.34 0 0.68 0 0 Z " fill="#1D1D1D" transform="translate(122,132)"/>
<path d="M0 0 C2.0625 0.4375 2.0625 0.4375 4 1 C4.625 2.875 4.625 2.875 5 5 C4.34 5.66 3.68 6.32 3 7 C0.375 6.625 0.375 6.625 -2 6 C-1.125 1.125 -1.125 1.125 0 0 Z " fill="#ECEBEC" transform="translate(210,106)"/>
<path d="M0 0 C2.0625 0.4375 2.0625 0.4375 4 1 C4.625 2.875 4.625 2.875 5 5 C4.34 5.66 3.68 6.32 3 7 C0.375 6.625 0.375 6.625 -2 6 C-1.125 1.125 -1.125 1.125 0 0 Z " fill="#EDEDED" transform="translate(166,94)"/>
<path d="M0 0 C1.15957207 3.47871621 0.77456651 4.34219645 -0.4375 7.6875 C-0.86869141 8.89986328 -0.86869141 8.89986328 -1.30859375 10.13671875 C-1.53675781 10.75160156 -1.76492187 11.36648437 -2 12 C-2.66 11.67 -3.32 11.34 -4 11 C-3.39301257 6.87248551 -1.96189209 3.6678852 0 0 Z " fill="#DADADA" transform="translate(73,74)"/>
</svg>
